<svg width="43" height="43" viewBox="0 0 43 43" fill="none" xmlns="http://www.w3.org/2000/svg">
<g id="vuesax/linear/messages">
<g id="messages">
<g id="Group">
<path id="Vector" d="M32.2139 19.3319V26.4985C32.2139 26.9644 32.1959 27.4123 32.1422 27.8423C31.7301 32.6798 28.8813 35.0806 23.6318 35.0806H22.9151C22.4672 35.0806 22.0372 35.2956 21.7684 35.6539L19.6184 38.5206C18.6689 39.7927 17.128 39.7927 16.1784 38.5206L14.0284 35.6539C13.7955 35.3493 13.2759 35.0806 12.8818 35.0806H12.1651C6.44969 35.0806 3.58301 33.6652 3.58301 26.4985V19.3319C3.58301 14.0823 6.00177 11.2335 10.8214 10.8214C11.2514 10.7677 11.6993 10.7498 12.1651 10.7498H23.6318C29.3472 10.7498 32.2139 13.6164 32.2139 19.3319Z" stroke="#23213D" stroke-width="2.75" stroke-miterlimit="10" stroke-linecap="round" stroke-linejoin="round"/>
</g>
<path id="Vector_2" d="M39.3805 12.1656V19.3323C39.3805 24.5998 36.9617 27.4306 32.1421 27.8427C32.1959 27.4127 32.2138 26.9648 32.2138 26.4989V19.3323C32.2138 13.6168 29.3471 10.7502 23.6317 10.7502H12.165C11.6992 10.7502 11.2513 10.7681 10.8213 10.8218C11.2334 6.00226 14.0821 3.5835 19.3317 3.5835H30.7984C36.5138 3.5835 39.3805 6.45018 39.3805 12.1656Z" stroke="#23213D" stroke-width="2.75" stroke-miterlimit="10" stroke-linecap="round" stroke-linejoin="round"/>
<path id="Vector_3" d="M24.1788 23.7396H24.1949" stroke="#23213D" stroke-width="3.66667" stroke-linecap="round" stroke-linejoin="round"/>
<path id="Vector_4" d="M17.9093 23.7396H17.9254" stroke="#23213D" stroke-width="3.66667" stroke-linecap="round" stroke-linejoin="round"/>
<path id="Vector_5" d="M11.6368 23.7396H11.6529" stroke="#23213D" stroke-width="3.66667" stroke-linecap="round" stroke-linejoin="round"/>
</g>
</g>
</svg>
