<svg width="44" height="43" viewBox="0 0 44 43" fill="none" xmlns="http://www.w3.org/2000/svg">
<g id="vuesax/linear/note">
<g id="note">
<path id="Vector" d="M36.3337 14.7812V32.2499C36.3337 37.6249 33.1266 39.4166 29.167 39.4166H14.8337C10.8741 39.4166 7.66699 37.6249 7.66699 32.2499V14.7812C7.66699 8.95825 10.8741 7.6145 14.8337 7.6145C14.8337 8.72534 15.2815 9.72866 16.0161 10.4632C16.7507 11.1978 17.7541 11.6458 18.8649 11.6458H25.1357C27.3574 11.6458 29.167 9.83617 29.167 7.6145C33.1266 7.6145 36.3337 8.95825 36.3337 14.7812Z" stroke="#23213D" stroke-width="3.02" stroke-linecap="round" stroke-linejoin="round"/>
<path id="Vector_2" d="M29.1663 7.6145C29.1663 9.83617 27.3568 11.6458 25.1351 11.6458H18.8643C17.7534 11.6458 16.75 11.1978 16.0155 10.4632C15.2809 9.72866 14.833 8.72534 14.833 7.6145C14.833 5.39284 16.6426 3.58325 18.8643 3.58325H25.1351C26.2459 3.58325 27.2493 4.03118 27.9839 4.76576C28.7185 5.50034 29.1663 6.50367 29.1663 7.6145Z" stroke="#23213D" stroke-width="3.02" stroke-linecap="round" stroke-linejoin="round"/>
<path id="Vector_3" d="M14.833 23.2917H21.9997" stroke="#23213D" stroke-width="3.02" stroke-linecap="round" stroke-linejoin="round"/>
<path id="Vector_4" d="M14.833 30.4583H29.1663" stroke="#23213D" stroke-width="3.02" stroke-linecap="round" stroke-linejoin="round"/>
</g>
</g>
</svg>
